<svg id="Слой_1" data-name="Слой 1" xmlns="http://www.w3.org/2000/svg" viewBox="0 0 1200 215"><defs><style>.cls-1{fill:#21db6c;}.cls-2{fill:#fff;}</style></defs><title>Логотип Investmag бел</title><path class="cls-1" d="M31.65,12.9,10.17,42a2.83,2.83,0,0,0,2.28,4.51h43A2.83,2.83,0,0,0,57.68,42L36.21,12.9A2.83,2.83,0,0,0,31.65,12.9Z"/><path class="cls-2" d="M21.38,67.48h37.1v116a12.79,12.79,0,0,1-12.79,12.79H15.07V73.78A6.31,6.31,0,0,1,21.38,67.48Z"/><path class="cls-2" d="M207.28,67.48V186A10.25,10.25,0,0,1,197,196.23H171.6l-48.93-58.49v58.49H80.37v-119a9.73,9.73,0,0,1,9.73-9.73h26L165,126V67.48Z"/><path class="cls-2" d="M366.75,67.48,317,185.21a18.06,18.06,0,0,1-16.63,11h-30.7L220.19,79.29A8.51,8.51,0,0,1,228,67.48h33.89l30.72,75.23,31.45-75.23Z"/><path class="cls-2" d="M478.95,163.49v19.25a13.49,13.49,0,0,1-13.49,13.49H371.9V80.72a13.25,13.25,0,0,1,13.25-13.25h91.41V87.56a12.65,12.65,0,0,1-12.65,12.65H414.57V115.3H469v31.27H414.57v16.92Z"/><path class="cls-2" d="M513.43,195.58q-15.17-3.58-24.92-9.66l9.28-21a11.16,11.16,0,0,1,14.5-5.79,96.82,96.82,0,0,0,10.8,3.72A80.47,80.47,0,0,0,545,166.06q9,0,12.88-1.75t3.86-5.24q0-4-5.06-6.07T540,148.59a188.56,188.56,0,0,1-24.83-6.71,42.29,42.29,0,0,1-17.29-11.77q-7.36-8.18-7.36-22.16a38.18,38.18,0,0,1,6.81-22.07q6.8-9.93,20.32-15.63t32.83-5.7a119.28,119.28,0,0,1,26,2.85,81.65,81.65,0,0,1,22.53,8.37l-8.19,19.74A12.49,12.49,0,0,1,575,102.4a72,72,0,0,0-24.87-4.76q-16.74,0-16.74,8.09,0,3.86,5,5.79t16.37,4.14A168.38,168.38,0,0,1,579.55,122a43.22,43.22,0,0,1,17.57,11.68q7.45,8.1,7.45,22.07a37.77,37.77,0,0,1-6.81,22q-6.81,9.84-20.32,15.63t-32.83,5.79A135,135,0,0,1,513.43,195.58Z"/><path class="cls-2" d="M644.48,101.14H606.78V79.35a11.88,11.88,0,0,1,11.88-11.88H725.6v21A12.62,12.62,0,0,1,713,101.14H687.89v83a12,12,0,0,1-12,12H644.48Z"/><path class="cls-2" d="M852.69,196.23l-.37-58.67-28,47.09H805.24l-28-45.06v46.34A10.32,10.32,0,0,1,767,196.23H737.73V84.48a17,17,0,0,1,17-17h18.68l41.94,68.61L853,72.91a11.12,11.12,0,0,1,9.55-5.43h29.36l.34,118.25a10.47,10.47,0,0,1-10.47,10.5Z"/><path class="cls-2" d="M1001.86,173.79H952.94L947.08,189a11.31,11.31,0,0,1-10.55,7.24H900.15L952.69,76a14.27,14.27,0,0,1,13.07-8.55H999.1l51.62,118.1a7.61,7.61,0,0,1-7,10.65h-33.25Zm-12-31.27L977.4,110.15l-12.51,32.37Z"/><path class="cls-2" d="M1146.62,128.36h37.71V182.8a87.56,87.56,0,0,1-26.49,12.14,109.34,109.34,0,0,1-29.61,4.23q-20.6,0-37-8.55a63.9,63.9,0,0,1-25.66-23.91q-9.29-15.36-9.29-34.86T1065.59,97a63.5,63.5,0,0,1,25.93-23.91q16.65-8.55,37.62-8.55,18.94,0,33.94,6.35A63.76,63.76,0,0,1,1188,89.36l-20.1,17.7a11.19,11.19,0,0,1-14.33.33,35.08,35.08,0,0,0-22.22-7.73q-14.35,0-22.81,8.64t-8.46,23.54q0,14.53,8.37,23.36T1130.8,164a40.86,40.86,0,0,0,15.82-3.13Z"/><path class="cls-2" d="M8.93,196.38l23-.4-1-128.45H20.37A12.35,12.35,0,0,0,8,80Z"/><path class="cls-2" d="M1128.54,128.36h25.15a0,0,0,0,1,0,0v23.21a0,0,0,0,1,0,0H1132.8a4.26,4.26,0,0,1-4.26-4.26V128.36A0,0,0,0,1,1128.54,128.36Z"/></svg>
