<svg>

    <symbol id="whatsapp" viewBox="0 0 512 512" xmlns="http://www.w3.org/2000/svg">
        <path d="m435.921875 74.351562c-48.097656-47.917968-112.082031-74.3242182-180.179687-74.351562-67.945313 0-132.03125 26.382812-180.445313 74.289062-48.5 47.988282-75.234375 111.761719-75.296875 179.339844v.078125.046875c.0078125 40.902344 10.753906 82.164063 31.152344 119.828125l-30.453125 138.417969 140.011719-31.847656c35.460937 17.871094 75.027343 27.292968 114.933593 27.308594h.101563c67.933594 0 132.019531-26.386719 180.441406-74.296876 48.542969-48.027343 75.289062-111.71875 75.320312-179.339843.019532-67.144531-26.820312-130.882813-75.585937-179.472657zm-180.179687 393.148438h-.089844c-35.832032-.015625-71.335938-9.011719-102.667969-26.023438l-6.621094-3.59375-93.101562 21.175782 20.222656-91.90625-3.898437-6.722656c-19.382813-33.425782-29.625-70.324219-29.625-106.71875.074218-117.800782 96.863281-213.75 215.773437-213.75 57.445313.023437 111.421875 22.292968 151.984375 62.699218 41.175781 41.03125 63.84375 94.710938 63.824219 151.152344-.046875 117.828125-96.855469 213.6875-215.800781 213.6875zm0 0"/><path d="m186.152344 141.863281h-11.210938c-3.902344 0-10.238281 1.460938-15.597656 7.292969-5.363281 5.835938-20.476562 19.941406-20.476562 48.628906s20.964843 56.40625 23.886718 60.300782c2.925782 3.890624 40.46875 64.640624 99.929688 88.011718 49.417968 19.421875 59.476562 15.558594 70.199218 14.585938 10.726563-.96875 34.613282-14.101563 39.488282-27.714844s4.875-25.285156 3.414062-27.722656c-1.464844-2.429688-5.367187-3.886719-11.214844-6.800782-5.851562-2.917968-34.523437-17.261718-39.886718-19.210937-5.363282-1.941406-9.261719-2.914063-13.164063 2.925781-3.902343 5.828125-15.390625 19.3125-18.804687 23.203125-3.410156 3.894531-6.824219 4.382813-12.675782 1.464844-5.851562-2.925781-24.5-9.191406-46.847656-29.050781-17.394531-15.457032-29.464844-35.167969-32.878906-41.003906-3.410156-5.832032-.363281-8.988282 2.570312-11.898438 2.628907-2.609375 6.179688-6.179688 9.105469-9.582031 2.921875-3.40625 3.753907-5.835938 5.707031-9.726563 1.949219-3.890625.972657-7.296875-.488281-10.210937-1.464843-2.917969-12.691406-31.75-17.894531-43.28125h.003906c-4.382812-9.710938-8.996094-10.039063-13.164062-10.210938zm0 0"/>
    </symbol>

    <symbol id="viber" xmlns="http://www.w3.org/2000/svg" viewBox="0 0 504 504">
        <path d="M377.6,0H126C56.8,0,0,56.8,0,126.4V378c0,69.2,56.8,126,126,126h251.6c69.6,0,126.4-56.8,126.4-126.4V126.4
            C504,56.8,447.2,0,377.6,0z M238.4,103.6c0.8-12.4,12.4-8,18.4-8.8c75.2,2.4,140,70,139.2,142.8c0,7.2,2.4,17.6-8.4,17.6
            c-10.4,0-7.6-10.8-8.8-18c-10-77.2-46-113.6-124.4-125.6C248,110.8,238,112,238.4,103.6z M350.8,240.8c-12,1.6-9.6-8.8-10.8-15.6
            c-8-47.2-24.8-64.4-73.2-74.8c-7.2-1.6-18.4-0.4-16.4-11.2c1.6-10.4,11.6-6.8,19.2-6c48.4,5.6,88,46.8,87.6,92
            C356.4,230,359.6,239.2,350.8,240.8z M320.8,216c0,6.4-0.8,12.4-8,13.2c-5.2,0.8-8.4-3.6-9.2-8.8c-2-19.2-12.4-30.8-32.4-34
            c-6-0.8-11.6-2.8-8.8-10.8c2-5.2,6.8-6,12-6C296,169.2,320.8,194.4,320.8,216z M396.8,363.6c-8.4,22.8-36.8,46-61.2,45.6
            c-3.6-0.8-10.4-2-16.4-4.4C212,359.6,134,285.2,90,178.8c-14.8-35.6,0.8-66,38-78c6.8-2.4,13.2-2.4,20,0
            c16,5.6,56.4,60.4,57.2,76.4c0.8,12.4-8,19.2-16.4,24.8c-16.4,10.8-16.4,24.4-9.2,40c15.6,34.4,42.4,58.4,77.2,73.6
            c12.4,5.6,24.8,5.2,33.2-7.6c15.2-22.8,34-21.6,54.4-7.6c10.4,7.2,20.8,14,30.4,21.6C388,332.8,404.8,341.6,396.8,363.6z"/>
    </symbol>

    <symbol id="linkedin" xmlns="http://www.w3.org/2000/svg" viewBox="0 0 510 510" >
        <path d="M459,0H51C22.95,0,0,22.95,0,51v408c0,28.05,22.95,51,51,51h408c28.05,0,51-22.95,51-51V51C510,22.95,487.05,0,459,0z
             M153,433.5H76.5V204H153V433.5z M114.75,160.65c-25.5,0-45.9-20.4-45.9-45.9s20.4-45.9,45.9-45.9s45.9,20.4,45.9,45.9
            S140.25,160.65,114.75,160.65z M433.5,433.5H357V298.35c0-20.399-17.85-38.25-38.25-38.25s-38.25,17.851-38.25,38.25V433.5H204
            V204h76.5v30.6c12.75-20.4,40.8-35.7,63.75-35.7c48.45,0,89.25,40.8,89.25,89.25V433.5z"/>
    
    </symbol>

    <symbol id="vk" xmlns="http://www.w3.org/2000/svg" 
     viewBox="0 0 511.962 511.962">
        <path d="M507.399,370.471c-1.376-2.304-9.888-20.8-50.848-58.816c-42.88-39.808-37.12-33.344,14.528-102.176
            c31.456-41.92,44.032-67.52,40.096-78.464c-3.744-10.432-26.88-7.68-26.88-7.68l-76.928,0.448c0,0-5.696-0.768-9.952,1.76
            c-4.128,2.496-6.784,8.256-6.784,8.256s-12.192,32.448-28.448,60.032c-34.272,58.208-48,61.28-53.6,57.664
            c-13.024-8.416-9.76-33.856-9.76-51.904c0-56.416,8.544-79.936-16.672-86.016c-8.384-2.016-14.528-3.36-35.936-3.584
            c-27.456-0.288-50.72,0.096-63.872,6.528c-8.768,4.288-15.52,13.856-11.392,14.4c5.088,0.672,16.608,3.104,22.72,11.424
            c7.904,10.72,7.616,34.848,7.616,34.848s4.544,66.4-10.592,74.656c-10.4,5.664-24.64-5.888-55.2-58.72
            c-15.648-27.04-27.488-56.96-27.488-56.96s-2.272-5.568-6.336-8.544c-4.928-3.616-11.84-4.768-11.84-4.768l-73.152,0.448
            c0,0-10.976,0.32-15.008,5.088c-3.584,4.256-0.288,13.024-0.288,13.024s57.28,133.984,122.112,201.536
            c59.488,61.92,127.008,57.856,127.008,57.856h30.592c0,0,9.248-1.024,13.952-6.112c4.352-4.672,4.192-13.44,4.192-13.44
            s-0.608-41.056,18.464-47.104c18.784-5.952,42.912,39.68,68.48,57.248c19.328,13.28,34.016,10.368,34.016,10.368l68.384-0.96
            C488.583,400.807,524.359,398.599,507.399,370.471z"/>
    
    </symbol>

    <symbol id="twitter" viewBox="0 -47 512.00203 512" xmlns="http://www.w3.org/2000/svg">
        <path d="m191.011719 419.042969c-22.140625 0-44.929688-1.792969-67.855469-5.386719-40.378906-6.335938-81.253906-27.457031-92.820312-33.78125l-30.335938-16.585938 32.84375-10.800781c35.902344-11.804687 57.742188-19.128906 84.777344-30.597656-27.070313-13.109375-47.933594-36.691406-57.976563-67.175781l-7.640625-23.195313 6.265625.957031c-5.941406-5.988281-10.632812-12.066406-14.269531-17.59375-12.933594-19.644531-19.78125-43.648437-18.324219-64.21875l1.4375-20.246093 12.121094 4.695312c-5.113281-9.65625-8.808594-19.96875-10.980469-30.777343-5.292968-26.359376-.863281-54.363282 12.476563-78.851563l10.558593-19.382813 14.121094 16.960938c44.660156 53.648438 101.226563 85.472656 168.363282 94.789062-2.742188-18.902343-.6875-37.144531 6.113281-53.496093 7.917969-19.039063 22.003906-35.183594 40.722656-46.691407 20.789063-12.777343 46-18.96875 70.988281-17.433593 26.511719 1.628906 50.582032 11.5625 69.699219 28.746093 9.335937-2.425781 16.214844-5.015624 25.511719-8.515624 5.59375-2.105469 11.9375-4.496094 19.875-7.230469l29.25-10.078125-19.074219 54.476562c1.257813-.105468 2.554687-.195312 3.910156-.253906l31.234375-1.414062-18.460937 25.230468c-1.058594 1.445313-1.328125 1.855469-1.703125 2.421875-1.488282 2.242188-3.339844 5.03125-28.679688 38.867188-6.34375 8.472656-9.511718 19.507812-8.921875 31.078125 2.246094 43.96875-3.148437 83.75-16.042969 118.234375-12.195312 32.625-31.09375 60.617187-56.164062 83.199219-31.023438 27.9375-70.582031 47.066406-117.582031 56.847656-23.054688 4.796875-47.8125 7.203125-73.4375 7.203125zm0 0"/>
    </symbol>

    <symbol id="share" xmlns="http://www.w3.org/2000/svg"
     viewBox="0 0 512 512" style="enable-background:new 0 0 512 512;" xml:space="preserve">
        <path d="M406,332c-29.641,0-55.761,14.581-72.167,36.755L191.99,296.124c2.355-8.027,4.01-16.346,4.01-25.124
            c0-11.906-2.441-23.225-6.658-33.636l148.445-89.328C354.307,167.424,378.589,180,406,180c49.629,0,90-40.371,90-90
            c0-49.629-40.371-90-90-90c-49.629,0-90,40.371-90,90c0,11.437,2.355,22.286,6.262,32.358l-148.887,89.59
            C156.869,193.136,132.937,181,106,181c-49.629,0-90,40.371-90,90c0,49.629,40.371,90,90,90c30.13,0,56.691-15.009,73.035-37.806
            l141.376,72.395C317.807,403.995,316,412.75,316,422c0,49.629,40.371,90,90,90c49.629,0,90-40.371,90-90
            C496,372.371,455.629,332,406,332z"/>
    </symbol>
    
    <symbol id="tel"  viewBox="0 0 24 24" xmlns="http://www.w3.org/2000/svg">
        <path d="m9.417 15.181-.397 5.584c.568 0 .814-.244 1.109-.537l2.663-2.545 5.518 4.041c1.012.564 1.725.267 1.998-.931l3.622-16.972.001-.001c.321-1.496-.541-2.081-1.527-1.714l-21.29 8.151c-1.453.564-1.431 1.374-.247 1.741l5.443 1.693 12.643-7.911c.595-.394 1.136-.176.691.218z"/>
    </symbol>

    <symbol id="fb" xmlns="http://www.w3.org/2000/svg" xmlns:xlink="http://www.w3.org/1999/xlink" 
     viewBox="0 0 408.788 408.788" style="enable-background:new 0 0 408.788 408.788;" xml:space="preserve">
        <path d="M353.701,0H55.087C24.665,0,0.002,24.662,0.002,55.085v298.616c0,30.423,24.662,55.085,55.085,55.085
            h147.275l0.251-146.078h-37.951c-4.932,0-8.935-3.988-8.954-8.92l-0.182-47.087c-0.019-4.959,3.996-8.989,8.955-8.989h37.882
            v-45.498c0-52.8,32.247-81.55,79.348-81.55h38.65c4.945,0,8.955,4.009,8.955,8.955v39.704c0,4.944-4.007,8.952-8.95,8.955
            l-23.719,0.011c-25.615,0-30.575,12.172-30.575,30.035v39.389h56.285c5.363,0,9.524,4.683,8.892,10.009l-5.581,47.087
            c-0.534,4.506-4.355,7.901-8.892,7.901h-50.453l-0.251,146.078h87.631c30.422,0,55.084-24.662,55.084-55.084V55.085
            C408.786,24.662,384.124,0,353.701,0z"/>
    </symbol>
    <symbol id="rss" viewBox="0 0 24 24" xmlns="http://www.w3.org/2000/svg"><g><circle cx="3.429" cy="20.571" r="3.429"/><path d="m11.429 24h4.57c0-8.821-7.178-15.999-15.999-16v4.572c6.302.001 11.429 5.126 11.429 11.428z"/><path d="m24 24c0-13.234-10.766-24-24-24v4.571c10.714 0 19.43 8.714 19.43 19.429z"/></g>
    </symbol>

    <symbol id="stopnotify" viewBox="0 0 27 25" xmlns="http://www.w3.org/2000/svg">

        <path d="M7.51505 1.99958L5.57874 0.189834C2.32899 2.50581 0.189569 6.07468 0 10.1245H2.70812C2.91123 6.77074 4.75276 3.83464 7.51505 1.99958ZM24.2919 10.1245H27C26.7969 6.07468 24.6575 2.50581 21.4213 0.189834L19.4985 1.99958C22.2337 3.83464 24.0888 6.77074 24.2919 10.1245ZM21.6244 10.7572C21.6244 6.87198 19.4037 3.6195 15.5311 2.75892V1.89834C15.5311 0.847924 14.6239 0 13.5 0C12.3761 0 11.4689 0.847924 11.4689 1.89834V2.75892C7.58275 3.6195 5.37563 6.85933 5.37563 10.7572V17.085C5.37563 17.085 4.18754 18.0111 3.89547 18.84C3.6286 19.5973 3.89547 20.8817 3.89547 20.8817H23.1051C23.1051 20.8817 23.372 19.5973 23.1051 18.84C22.8129 18.011 21.6244 17.085 21.6244 17.085V10.7572ZM13.5 24.6784C13.6896 24.6784 13.8656 24.6657 14.0416 24.6278C14.9218 24.4506 15.6394 23.8937 15.9915 23.1344C16.1269 22.8307 16.1946 22.5016 16.1946 22.1473H10.7783C10.7919 23.5394 11.997 24.6784 13.5 24.6784Z" fill="#A9A9A9"/>
        <path d="M2 2L28 28" stroke="#888888" stroke-width="3" stroke-linecap="round" stroke-linejoin="round"/>

    </symbol>

    <symbol id="notification" viewBox="0 0 27 25" xmlns="http://www.w3.org/2000/svg">
        <path d="M7.51505 1.98353L5.57874 0.18831C2.32899 2.48569 0.189569 6.02591 0 10.0432H2.70812C2.91123 6.71638 4.75276 3.80385 7.51505 1.98353ZM24.2919 10.0432H27C26.7969 6.02591 24.6575 2.48569 21.4213 0.18831L19.4985 1.98353C22.2337 3.80385 24.0888 6.71638 24.2919 10.0432ZM21.6244 10.6709C21.6244 6.81681 19.4037 3.59044 15.5311 2.73677V1.8831C15.5311 0.841116 14.6239 0 13.5 0C12.3761 0 11.4689 0.841116 11.4689 1.8831V2.73677C7.58275 3.59044 5.37563 6.80425 5.37563 10.6709V16.9479C5.37563 16.9479 4.18754 17.8665 3.89547 18.6887C3.6286 19.4399 3.89547 20.7141 3.89547 20.7141H23.1051C23.1051 20.7141 23.372 19.4399 23.1051 18.6887C22.8129 17.8664 21.6244 16.9479 21.6244 16.9479V10.6709ZM13.5 24.4802C13.6896 24.4802 13.8656 24.4677 14.0416 24.43C14.9218 24.2543 15.6394 23.7019 15.9915 22.9487C16.1269 22.6474 16.1946 22.321 16.1946 21.9695H10.7783C10.7919 23.3504 11.997 24.4802 13.5 24.4802Z"/>
    </symbol>

    <symbol id="search" viewBox="0 0 24 24" fill="none" xmlns="http://www.w3.org/2000/svg">
        <circle cx="11" cy="11" r="7"/>
        <path d="M22.5 22.5L17 17" stroke-linecap="round"/>
    </symbol>

    <symbol id="logo" xmlns="http://www.w3.org/2000/svg" viewBox="0 0 1200 215">
        <path style="fill:#21db6c;" class="cls-1" d="M31.65,12.9,10.17,42a2.83,2.83,0,0,0,2.28,4.51h43A2.83,2.83,0,0,0,57.68,42L36.21,12.9A2.83,2.83,0,0,0,31.65,12.9Z"/><path class="cls-2" d="M21.38,67.48h37.1v116a12.79,12.79,0,0,1-12.79,12.79H15.07V73.78A6.31,6.31,0,0,1,21.38,67.48Z"/><path class="cls-2" d="M207.28,67.48V186A10.25,10.25,0,0,1,197,196.23H171.6l-48.93-58.49v58.49H80.37v-119a9.73,9.73,0,0,1,9.73-9.73h26L165,126V67.48Z"/><path class="cls-2" d="M366.75,67.48,317,185.21a18.06,18.06,0,0,1-16.63,11h-30.7L220.19,79.29A8.51,8.51,0,0,1,228,67.48h33.89l30.72,75.23,31.45-75.23Z"/><path class="cls-2" d="M478.95,163.49v19.25a13.49,13.49,0,0,1-13.49,13.49H371.9V80.72a13.25,13.25,0,0,1,13.25-13.25h91.41V87.56a12.65,12.65,0,0,1-12.65,12.65H414.57V115.3H469v31.27H414.57v16.92Z"/><path class="cls-2" d="M513.43,195.58q-15.17-3.58-24.92-9.66l9.28-21a11.16,11.16,0,0,1,14.5-5.79,96.82,96.82,0,0,0,10.8,3.72A80.47,80.47,0,0,0,545,166.06q9,0,12.88-1.75t3.86-5.24q0-4-5.06-6.07T540,148.59a188.56,188.56,0,0,1-24.83-6.71,42.29,42.29,0,0,1-17.29-11.77q-7.36-8.18-7.36-22.16a38.18,38.18,0,0,1,6.81-22.07q6.8-9.93,20.32-15.63t32.83-5.7a119.28,119.28,0,0,1,26,2.85,81.65,81.65,0,0,1,22.53,8.37l-8.19,19.74A12.49,12.49,0,0,1,575,102.4a72,72,0,0,0-24.87-4.76q-16.74,0-16.74,8.09,0,3.86,5,5.79t16.37,4.14A168.38,168.38,0,0,1,579.55,122a43.22,43.22,0,0,1,17.57,11.68q7.45,8.1,7.45,22.07a37.77,37.77,0,0,1-6.81,22q-6.81,9.84-20.32,15.63t-32.83,5.79A135,135,0,0,1,513.43,195.58Z"/><path class="cls-2" d="M644.48,101.14H606.78V79.35a11.88,11.88,0,0,1,11.88-11.88H725.6v21A12.62,12.62,0,0,1,713,101.14H687.89v83a12,12,0,0,1-12,12H644.48Z"/><path class="cls-2" d="M852.69,196.23l-.37-58.67-28,47.09H805.24l-28-45.06v46.34A10.32,10.32,0,0,1,767,196.23H737.73V84.48a17,17,0,0,1,17-17h18.68l41.94,68.61L853,72.91a11.12,11.12,0,0,1,9.55-5.43h29.36l.34,118.25a10.47,10.47,0,0,1-10.47,10.5Z"/><path class="cls-2" d="M1001.86,173.79H952.94L947.08,189a11.31,11.31,0,0,1-10.55,7.24H900.15L952.69,76a14.27,14.27,0,0,1,13.07-8.55H999.1l51.62,118.1a7.61,7.61,0,0,1-7,10.65h-33.25Zm-12-31.27L977.4,110.15l-12.51,32.37Z"/><path class="cls-2" d="M1146.62,128.36h37.71V182.8a87.56,87.56,0,0,1-26.49,12.14,109.34,109.34,0,0,1-29.61,4.23q-20.6,0-37-8.55a63.9,63.9,0,0,1-25.66-23.91q-9.29-15.36-9.29-34.86T1065.59,97a63.5,63.5,0,0,1,25.93-23.91q16.65-8.55,37.62-8.55,18.94,0,33.94,6.35A63.76,63.76,0,0,1,1188,89.36l-20.1,17.7a11.19,11.19,0,0,1-14.33.33,35.08,35.08,0,0,0-22.22-7.73q-14.35,0-22.81,8.64t-8.46,23.54q0,14.53,8.37,23.36T1130.8,164a40.86,40.86,0,0,0,15.82-3.13Z"/><path class="cls-2" d="M8.93,196.38l23-.4-1-128.45H20.37A12.35,12.35,0,0,0,8,80Z"/><path class="cls-2" d="M1128.54,128.36h25.15a0,0,0,0,1,0,0v23.21a0,0,0,0,1,0,0H1132.8a4.26,4.26,0,0,1-4.26-4.26V128.36A0,0,0,0,1,1128.54,128.36Z"/>
    </symbol>
</svg>
